<?xml version="1.0" encoding="UTF-8"?>
<svg id="Layer_1" data-name="Layer 1" xmlns="http://www.w3.org/2000/svg" viewBox="0 0 358.21 381.28">
  <defs>
    <style>
      .cls-1 {
        fill: #fdcd4a;
      }

      .cls-2 {
        fill: #25346d;
      }

      .cls-3 {
        fill: #fff;
      }
    </style>
  </defs>
  <path class="cls-3" d="M329.73,73.33C296.46,28.1,238.74,0,179.1,0S61.75,28.1,28.48,73.33C.33,111.6-7.27,158.02,7.09,204.03c9.21,29.51,23.13,74.11,48.91,110.68,31.13,44.17,72.55,66.56,123.11,66.56s91.98-22.4,123.11-66.56c25.78-36.57,39.69-81.16,48.9-110.68,14.36-46.01,6.76-92.43-21.39-130.71Z"/>
  <path class="cls-2" d="M329.73,73.33C296.46,28.1,238.74,0,179.1,0S61.75,28.1,28.48,73.33C.33,111.6-7.27,158.02,7.09,204.03c9.21,29.51,23.13,74.11,48.91,110.68,31.13,44.17,72.55,66.56,123.11,66.56s91.98-22.4,123.11-66.56c25.78-36.57,39.69-81.16,48.9-110.68,14.36-46.01,6.76-92.43-21.39-130.71ZM346.95,202.73c-9.13,29.25-22.92,73.45-48.31,109.47-30.27,42.94-70.49,64.71-119.54,64.71s-89.28-21.77-119.54-64.71c-25.38-36.01-39.18-80.22-48.31-109.47-13.93-44.65-6.57-89.69,20.74-126.83C64.46,31.78,120.83,4.36,179.1,4.36s114.65,27.42,147.11,71.55c27.31,37.13,34.68,82.17,20.74,126.83Z"/>
  <g>
    <g>
      <path class="cls-2" d="M118.02,24.81c.98-.31,1.94-.22,2.88.26.94.49,1.6,1.25,1.97,2.27l2.6,7.22c.37,1.04.34,2.05-.1,3.04s-1.16,1.67-2.16,2.03l-1.2.43.87,2.41-2.41.87-2.23-6.19-2.6-7.22-1.36-3.79,3.61-1.3.12-.04ZM117.57,27.7l3.59,9.97,1.2-.43c.33-.12.57-.36.7-.72.13-.36.13-.72,0-1.09l-2.6-7.22c-.14-.38-.37-.66-.7-.85s-.66-.22-.99-.1l-1.2.43Z"/>
      <path class="cls-2" d="M127.59,25.46c-.3-1.07-.2-2.09.31-3.05s1.27-1.58,2.3-1.87c1.02-.29,2-.16,2.93.4.93.55,1.55,1.37,1.85,2.44l3.96,14.07-2.47.69-.69-2.47-2.45.69.69,2.47-2.47.69-3.96-14.07ZM135.08,33.22l-1.15-4.1-1.42-5.05c-.11-.39-.32-.69-.64-.9s-.64-.26-.98-.17c-.34.1-.59.31-.75.66s-.19.71-.08,1.1l1.42,5.05,1.15,4.1,2.45-.69Z"/>
      <path class="cls-2" d="M143.63,17.67c1.03-.17,1.97.06,2.83.68.86.62,1.4,1.46,1.62,2.53l2.03,10.02c.22,1.09.04,2.1-.53,3.02-.58.92-1.39,1.48-2.43,1.69l-.07.02-3.69.75-3.62-17.92,3.76-.76.11-.02ZM142.78,20.46l2.61,12.89,1.25-.25c.35-.07.61-.27.8-.6.19-.33.24-.69.16-1.09l-2.03-10.02c-.08-.4-.27-.71-.57-.94-.3-.23-.62-.31-.97-.24l-1.25.25ZM143.65,17.67s-.09.02-.13.03l.13-.03Z"/>
      <path class="cls-2" d="M161.49,30.75l.33,2.54-3.81.49-2.54.33-.33-2.54-1.68-13.04-.33-2.54,2.54-.33,2.54-.33.33,2.54-2.54.33.33,2.52,3.81-.49.33,2.54-3.81.49,1.03,7.97,3.81-.49Z"/>
      <path class="cls-2" d="M165.29,14.62l2.56-.16.98,15.68,3.83-.24.16,2.56-6.39.4-1.14-18.24Z"/>
    </g>
    <g>
      <path class="cls-2" d="M186.44,17.86c.07-1.11.5-2.04,1.29-2.77s1.72-1.07,2.79-1.01,1.94.51,2.64,1.34,1.01,1.8.94,2.91l-.09,1.44-2.56-.16.09-1.44c.02-.4-.08-.76-.31-1.06-.23-.3-.52-.46-.87-.48s-.66.1-.93.37c-.26.27-.41.61-.43,1.01l-.68,10.92c-.03.4.08.76.3,1.06.23.3.52.46.88.48s.66-.1.93-.37c.26-.27.41-.61.43-1.01l.09-1.44,2.56.16-.09,1.44c-.07,1.11-.5,2.04-1.29,2.77-.79.74-1.72,1.07-2.78,1.01-1.06-.07-1.94-.51-2.64-1.34s-1.01-1.8-.94-2.91l.68-10.92Z"/>
      <path class="cls-2" d="M204.23,15.79l2.53.39-2.42,15.53,3.79.59-.39,2.53-6.33-.98,2.81-18.06Z"/>
      <path class="cls-2" d="M219.8,18.63l2.49.62-3.56,14.17c-.1.39-.06.76.11,1.09.17.34.43.55.77.63.34.09.67.02.98-.19.31-.22.51-.52.61-.91l3.56-14.17,2.49.62-3.56,14.17c-.27,1.08-.87,1.91-1.78,2.49-.92.58-1.89.74-2.92.48-1.03-.26-1.82-.86-2.35-1.8-.53-.94-.66-1.96-.39-3.04l3.56-14.17Z"/>
      <path class="cls-2" d="M236.85,23.42l3.61,1.29.11.04s.07.03.1.06c.92.38,1.59,1.04,2.01,1.98.41.93.45,1.88.11,2.83-.34.94-.94,1.64-1.82,2.09.37.95.38,1.92.03,2.9l-1.72,4.81c-.38,1.05-1.05,1.82-2.01,2.31-.97.49-1.95.55-2.96.2l-.07-.03-3.54-1.27,6.15-17.21ZM236.68,31.51l-2.71,7.57,1.2.43c.33.12.67.09.99-.1.33-.19.56-.47.7-.85l1.72-4.81c.14-.38.14-.75,0-1.1s-.37-.59-.71-.71l-1.2-.43ZM238.4,26.69l-.86,2.4,1.2.43c.06.02.12.04.18.06.3.05.59,0,.87-.15.28-.16.47-.38.58-.68.12-.33.1-.66-.04-.97-.15-.32-.39-.53-.73-.65l-1.2-.43Z"/>
    </g>
  </g>
  <g>
    <path class="cls-2" d="M301.59,188.58c-8.24,26.41-20.69,66.32-41.78,96.24-21.43,30.41-47.08,44.57-80.7,44.57s-59.26-14.16-80.7-44.57c-21.09-29.92-33.54-69.83-41.78-96.24-3.16-10.12-4.76-20.22-4.76-30.03,0-19.53,6.19-37.86,18.42-54.48,23.67-32.19,65.37-52.18,108.82-52.18s85.15,20,108.82,52.18c12.23,16.62,18.42,34.95,18.42,54.48,0,9.81-1.6,19.91-4.76,30.03Z"/>
    <g>
      <g>
        <path class="cls-3" d="M90.33,118.35c5.82.2,11.1,2.56,15.57,6.99,4.47,4.42,6.87,9.69,7.36,15.91,1.11,14.31,1.77,21.48,3.15,35.84.61,6.31-.83,11.89-4.18,16.94-3.35,5.05-7.66,8.07-13.01,9.01-2.56.45-3.84.68-6.38,1.17,1.31,9.58,1.97,14.36,3.26,23.92-4.97,1.24-7.45,1.91-12.4,3.33-5.31-37.61-10.95-75.19-14.53-113.01,7.51-.04,11.74-.05,20.4-.08.3,0,.45,0,.75,0ZM83.99,133.62c2.07,18.44,4.34,36.83,6.76,55.22,2.58-.4,3.89-.59,6.51-.95,1.82-.26,3.27-1.33,4.35-3.21,1.08-1.88,1.49-3.95,1.22-6.26-1.71-14.71-2.54-22.06-3.96-36.68-.23-2.36-1.11-4.35-2.65-5.97-1.54-1.62-3.31-2.42-5.27-2.36-2.82.08-4.22.12-6.96.21Z"/>
        <path class="cls-3" d="M120.25,139.57c-.7-6.36.83-11.82,4.53-16.25,3.74-4.46,8.83-7.08,14.96-7.08,6.09,0,10.79,2.39,15.25,6.7,4.38,4.23,5.76,10.47,6.07,16.57l3.94,78.58-.68.04c-4.77.27-3.48.15-8.21.56l-3.73.26-1.58-21.95c-4.33.28-8.34.66-12.64,1.03l1.72,22.23-3.65.43c-4.89.58-2.92.4-7.85,1.13l-1.06.22-7.09-82.48ZM140.32,130.48c-1.7.02-3.12.72-4.19,2.12-1.09,1.44-2.06,4.39-1.87,6.46l2.83,44.76c4.43-.31,8.28-.61,12.73-.84l-2.84-45.27c-.15-2.07-.88-3.77-2.24-5.19-1.3-1.36-2.75-2.03-4.43-2.03h0Z"/>
        <path class="cls-3" d="M193.19,118.18c6.52.2,11.79,2.39,15.76,6.6,3.97,4.21,5.6,9.29,5.27,15.24-1.09,18.77-2.24,37.53-3.41,56.3-.38,6.17-2.59,11.31-6.53,15.43-3.94,4.13-8.46,6.07-13.69,5.97-.15,0-.22,0-.37,0-7.41-.13-11.11-.1-18.52.16-1.34-33.22-2.55-66.44-3.39-99.67,9.43-.01,14.52-.02,24.17-.02.29,0,.43,0,.72,0ZM184.37,132.04c-.08,23.86-.11,47.72-.09,71.58,2.62,0,3.93.01,6.54.05,1.82.03,3.38-.72,4.69-2.25,1.32-1.53,2.03-3.41,2.11-5.63.69-18.62,1.38-37.24,2.05-55.85.08-2.2-.59-4.07-2.03-5.61-1.44-1.54-3.25-2.31-5.43-2.31-3.12,0-4.7,0-7.85.02ZM193.31,118.18c-.32,0-.6,0-.84,0,.33,0,.5,0,.84,0Z"/>
        <path class="cls-3" d="M249.07,208.5c-.59,5.92-.89,8.88-1.46,14.75-7.49-1.36-11.25-1.94-18.78-2.88-5.03-.63-7.55-.9-12.59-1.35.36-5.69.54-8.55.92-14.25,1.61-24.22,3.22-48.44,4.62-72.68.3-5.59.44-8.37.69-13.91,5.19,0,7.63,0,13.16.02,5.53,0,8.44.02,14.32.03-.35,5.67-.54,8.53-.95,14.28-5.77-.11-8.63-.16-14.11-.25-.32,5.62-.49,8.44-.85,14.11,8.1.26,12.4.42,20.93.8-.52,5.88-.79,8.84-1.34,14.76-8.34-.58-12.54-.83-20.54-1.23-1.04,15.09-2.15,30.17-3.25,45.25,7.65.84,11.51,1.35,19.22,2.54Z"/>
        <path class="cls-3" d="M280.61,230.42s-16.25-4.27-27.47-6.44c3.74-35.22,7.49-70.42,10.43-105.72,5.95.02,7.11.02,12.9.04-3.13,31.11-5.15,62.63-9.05,93.66,7.64,1.51,18.21,4.46,18.21,4.46l-5.02,14Z"/>
      </g>
      <g>
        <path class="cls-1" d="M83.5,215.8c-4.45-31.21-9.04-63.46-12.13-95.38,6.22-.03,10.43-.04,18.21-.07h.75c5.26.18,10.05,2.34,14.16,6.41,4.11,4.06,6.32,8.85,6.77,14.64,1.11,14.32,1.78,21.57,3.15,35.88.55,5.78-.71,10.9-3.85,15.64-3.08,4.65-6.91,7.31-11.69,8.15-2.57.45-3.86.68-6.41,1.17l-1.86.36,1.27,9.31c.67,4.88,1.22,8.93,2.01,14.71-3.21.81-5.42,1.4-8.52,2.28-.62-4.36-1.24-8.73-1.86-13.09ZM90.9,131.42c-2.83.08-4.22.12-6.97.21l-2.17.07.24,2.15c1.96,17.46,4.17,35.53,6.76,55.26l.27,2.03,2.02-.31c2.57-.39,3.87-.58,6.48-.95,2.42-.34,4.43-1.79,5.81-4.19,1.29-2.25,1.79-4.77,1.48-7.48-1.71-14.67-2.54-22.09-3.95-36.64-.27-2.8-1.34-5.21-3.19-7.16-1.88-1.98-4.08-2.99-6.53-2.99h-.25Z"/>
        <path class="cls-1" d="M122.24,139.4c-.64-5.84.73-10.8,4.07-14.79,3.49-4.16,8.13-6.36,13.43-6.37,5.19,0,9.46,1.89,13.86,6.14,3.32,3.2,5.1,8.19,5.46,15.23l3.84,76.6-1.25.07c-1.97.11-2.09.11-5.71.43l-1.71.12-1.58-21.94-1.98.13c-3.31.21-6.39.48-9.64.77l-5.02.44,1.72,22.29-1.74.2c-3.05.36-3.49.43-4.53.61-.5.08-1.15.19-2.34.38l-6.9-80.3ZM140.3,128.48c-2.34.03-4.33,1.04-5.76,2.91-1.31,1.73-2.52,5.14-2.27,7.85l2.96,46.71,5.48-.38c3.08-.22,5.99-.43,9.22-.6l2.02-.1-2.97-47.29c-.18-2.54-1.12-4.7-2.79-6.45-1.67-1.76-3.65-2.65-5.88-2.65h-.03Z"/>
        <path class="cls-1" d="M173.61,215.81c-1.5-37.28-2.54-67.78-3.26-95.61,8.17,0,13.19-.01,22.12-.02h.69c5.96.19,10.78,2.2,14.33,5.97,3.49,3.7,5.04,8.2,4.73,13.75-1.19,20.52-2.45,40.86-3.41,56.28-.35,5.61-2.36,10.38-5.98,14.18-3.44,3.61-7.32,5.36-11.86,5.36h-.73c-2.79-.06-5.07-.09-7.21-.09-2.91,0-5.6.05-9.41.17ZM192.21,130.01c-3.12,0-4.7,0-7.86.02h-1.99s0,1.99,0,1.99c-.08,25.92-.11,49.33-.09,71.59v2s2,0,2,0c2.6,0,3.91.01,6.51.05h.13c2.37,0,4.43-.99,6.11-2.95,1.62-1.88,2.49-4.19,2.59-6.86l.42-11.21c.55-14.88,1.1-29.76,1.64-44.64.1-2.75-.77-5.12-2.56-7.05-1.82-1.95-4.14-2.94-6.88-2.94h-.02Z"/>
        <path class="cls-1" d="M245.83,220.9c-6.21-1.11-9.9-1.65-16.75-2.51-4.4-.55-6.85-.83-10.72-1.18.28-4.48.46-7.29.79-12.3,1.8-26.96,3.28-49.44,4.62-72.69.26-4.92.4-7.67.6-12.02l23.45.04c-.24,3.88-.42,6.49-.68,10.25-4.57-.09-7.37-.14-12.21-.21l-1.92-.03-.11,1.92c-.32,5.61-.49,8.43-.85,14.1l-.13,2.06,2.06.07c7.2.23,11.44.38,18.82.71-.35,3.98-.6,6.69-.98,10.73-7.35-.5-11.53-.74-18.63-1.1l-1.96-.1-.14,1.96c-.9,13.01-1.87,26.24-2.8,39.04l-.59,8.13,1.92.21c7.07.77,10.81,1.26,17.26,2.24-.4,4.04-.67,6.76-1.06,10.71Z"/>
        <path class="cls-1" d="M279.34,228.03c-4.24-1.09-15.26-3.88-24.02-5.65,3.55-33.44,7.22-68,10.08-102.11l8.85.03c-1.08,10.94-2.05,22.07-2.99,32.85-1.67,19.26-3.4,39.18-5.84,58.57l-.23,1.85,1.83.36c5.47,1.08,12.53,2.93,15.98,3.86l-3.67,10.24Z"/>
      </g>
      <g>
        <path class="cls-3" d="M175.13,286.13s-.09,0-.14,0h-.43l-.36-.32-.17-.17-1.34,1.34-.02.17.36,1.08,1.79,2.87.74.86h.16s2.62-2.62,2.62-2.62l-2.56-2.56-.65-.65Z"/>
        <path class="cls-3" d="M172.7,288.51l-.36-1.08h-.15s-2.72,2.72-2.72,2.72c-1.01.13-2.04.63-2.88,1.47-.42.42.44,1.98,1.94,3.47,1.5,1.5,3.05,2.36,3.47,1.94.84-.84,1.33-1.87,1.47-2.88l1.76-1.76v-.16s-.74-.86-.74-.86l-1.79-2.87Z"/>
        <path class="cls-3" d="M180.62,280.68l2.73,2.73v.07s.18.11.18.11l.59.59.91-.91s0-.12-.1-.26l-.11.06c-.11.11-1.14-.76-2.31-1.93-1.17-1.17-2.03-2.21-1.93-2.31l.05-.09v-.03c-.13-.09-.23-.13-.26-.1l-.57.57.51.51c.3.31.36.66.3.98Z"/>
        <path class="cls-3" d="M235.25,254.73s0-.04,0-.06l.07-.13s-.04-.78-.05-.99c-.12-1.57-.49-3.27-1.12-5.04l-.09-.25s.04,0,.06-.02c-1.46-4.07-4.13-8.2-7.35-11.45-3.23-3.2-7.32-5.85-11.36-7.32-.01.03-.02.07-.03.1l-.19-.07c-1.8-.64-3.53-1.03-5.12-1.15-.22-.02-.99-.05-.99-.05l-.12.07s-.04,0-.06,0c-.07,0-.14,0-.21,0-.08,0-.16,0-.24,0-.07,0-.14,0-.21,0-.08,0-.15,0-.23,0-.07,0-.14,0-.21,0-.07,0-.15,0-.22,0-.07,0-.14,0-.21.01-.07,0-.14,0-.22.01-.07,0-.14.01-.2.02-.07,0-.14.01-.21.02-.07,0-.13.01-.2.02-.07,0-.14.02-.21.02-.06,0-.13.02-.19.02-.07,0-.14.02-.21.03-.06,0-.13.02-.19.03-.07.01-.14.02-.2.03-.06.01-.12.02-.18.03-.07.01-.14.03-.21.04-.06.01-.12.02-.17.03-.08.02-.15.03-.23.05-.08.02-.16.04-.25.06-.08.02-.17.04-.25.06-.06.01-.11.03-.17.05-.06.02-.12.03-.18.05-.06.02-.12.03-.18.05-.06.02-.11.03-.17.05-.06.02-.12.04-.18.06-.05.02-.11.04-.16.05-.06.02-.12.04-.18.06-.05.02-.11.04-.16.06-.06.02-.12.04-.17.07-.05.02-.1.04-.15.06-.06.02-.12.05-.18.07-.05.02-.1.04-.14.06-.06.02-.12.05-.18.07-.04.02-.09.04-.13.06-.06.03-.12.05-.18.08-.04.02-.08.04-.12.06-.06.03-.12.06-.18.09-.04.02-.07.04-.11.05-.06.03-.13.06-.19.1-.03.01-.05.03-.08.04-.44.23-.86.47-1.27.73,0,0-.02.01-.03.02-.08.05-.15.1-.22.15-.01,0-.02.02-.04.02-.07.05-.15.1-.22.15-.01,0-.02.01-.03.02-.07.05-.15.1-.22.15,0,0,0,0-.01,0h0c-.3.21-.6.43-.89.65-4.47,3.48-10.96,12.59-12.54,19.71-.36,1.61-.67,3.28-.91,4.97l-.04-.18c-.32,1.85-.62,4.97-.73,7.59-.17,3.97-.6,9.54-1.8,12.17-.45.97-.94,1.74-1.35,2.29.14.31.98,1.28,1.99,2.29s1.96,1.84,2.28,1.99c.55-.41,1.32-.9,2.29-1.35,2.63-1.21,8.2-1.63,12.17-1.8,2.61-.11,5.74-.41,7.59-.73l-.08-.02c1.66-.23,3.31-.54,4.9-.9,7.12-1.59,16.23-8.07,19.71-12.54.22-.29.44-.58.65-.89h0s0,0,0-.01c.05-.07.1-.15.15-.22,0-.01.01-.02.02-.03.05-.07.1-.15.15-.22,0-.01.02-.02.02-.04.05-.07.1-.15.15-.23,0,0,.01-.02.02-.03.25-.4.5-.82.73-1.27.01-.03.03-.05.04-.08.03-.06.06-.13.1-.19.02-.04.04-.07.05-.11.03-.06.06-.12.09-.18.02-.04.04-.08.06-.12.03-.06.05-.12.08-.18.02-.04.04-.09.06-.13.03-.06.05-.12.07-.18.02-.05.04-.09.06-.14.02-.06.05-.12.07-.18.02-.05.04-.1.06-.15.02-.06.04-.12.07-.17.02-.05.04-.1.06-.16.02-.06.04-.12.06-.18.02-.05.04-.11.05-.16.02-.06.04-.12.06-.18.02-.06.03-.11.05-.17.02-.06.04-.12.05-.18.02-.06.03-.12.05-.18.02-.06.03-.11.05-.17.02-.08.04-.17.06-.25.02-.08.04-.16.06-.25.02-.08.03-.15.05-.23.01-.06.02-.11.03-.17.01-.07.03-.14.04-.21.01-.06.02-.12.03-.18.01-.07.02-.14.03-.2,0-.06.02-.13.03-.19.01-.07.02-.14.03-.21,0-.06.02-.13.02-.19,0-.07.02-.14.02-.21,0-.07.01-.13.02-.2,0-.07.01-.14.02-.21,0-.07.01-.14.02-.2,0-.07,0-.14.01-.22,0-.07,0-.14.01-.21,0-.07,0-.15,0-.22,0-.07,0-.14,0-.21,0-.08,0-.15,0-.23,0-.07,0-.14,0-.21,0-.08,0-.16,0-.24,0-.07,0-.14,0-.21ZM224.45,245.83h.03c.86,0,1.56.7,1.56,1.56,0,.42-.16.81-.45,1.11s-.69.46-1.14.46c-.42,0-.81-.16-1.11-.46-.3-.3-.46-.69-.46-1.11,0-.86.7-1.57,1.56-1.57ZM220.51,240.87c.3-.3.69-.46,1.11-.46s.81.16,1.13.48c.3.3.46.69.46,1.11s-.16.81-.46,1.11c-.3.3-.69.46-1.11.46s-.81-.16-1.13-.48c-.3-.3-.46-.69-.46-1.11s.16-.81.46-1.11ZM222.69,252.24c-.19.66-.81,1.12-1.5,1.12-.15,0-.3-.02-.49-.08-.24-.07-.47-.21-.65-.39-.41-.41-.56-1.01-.39-1.56.2-.66.8-1.11,1.5-1.11.15,0,.31.02.48.07.83.24,1.3,1.12,1.06,1.94ZM220.24,244.78c.25,0,.5.06.76.19.76.4,1.06,1.35.66,2.11-.27.52-.8.84-1.39.84-.25,0-.5-.06-.75-.19-.14-.07-.27-.17-.38-.28-.49-.49-.6-1.22-.28-1.83.27-.52.8-.84,1.39-.84ZM216,256.02c.3-.3.69-.46,1.11-.46s.81.16,1.13.48c.3.3.46.69.46,1.11s-.16.81-.46,1.11c-.3.3-.69.46-1.11.46s-.81-.16-1.13-.48c-.3-.3-.46-.69-.46-1.11s.16-.81.46-1.11ZM214.49,255.16c-.42,0-.81-.16-1.13-.48-.3-.3-.46-.69-.46-1.11s.16-.81.46-1.11.69-.46,1.11-.46.81.16,1.13.48c.3.3.46.69.46,1.11s-.16.81-.46,1.11c-.3.3-.69.46-1.11.46ZM218.54,250.82c-.29.44-.78.71-1.31.71-.3,0-.6-.09-.9-.28-.09-.06-.16-.12-.24-.19-.53-.53-.61-1.36-.19-1.98.29-.43.78-.69,1.3-.69.31,0,.61.09.88.27.35.23.59.58.68.99.09.41,0,.83-.22,1.18ZM218.66,242.66c.4.77.1,1.71-.66,2.11-.22.12-.47.18-.72.18-.41,0-.82-.17-1.11-.46-.11-.11-.21-.24-.29-.41-.19-.37-.23-.79-.11-1.19.12-.4.4-.73.77-.92.22-.12.48-.18.73-.18.58,0,1.12.32,1.4.87ZM216.23,237.58h0c.42,0,.81.17,1.11.46.29.3.46.69.45,1.14,0,.86-.7,1.56-1.56,1.56-.42,0-.81-.16-1.11-.46-.3-.3-.46-.69-.46-1.15,0-.86.71-1.56,1.56-1.56ZM214.98,245.54c.23.35.32.76.24,1.17s-.32.76-.66,1c-.26.17-.56.26-.87.26-.41,0-.82-.17-1.11-.46-.07-.07-.14-.15-.22-.28-.47-.72-.27-1.69.45-2.17.26-.17.55-.25.86-.25.53,0,1.02.27,1.32.72ZM211.99,258.1c-.29.25-.66.39-1.04.39-.35,0-.7-.12-.98-.34-.07-.06-.13-.12-.22-.21-.57-.65-.51-1.64.13-2.21.29-.25.66-.39,1.04-.39.45,0,.87.19,1.19.55.57.65.51,1.64-.13,2.21ZM212.28,243.96c-.15.05-.3.07-.46.07-.41,0-.82-.17-1.11-.46-.18-.18-.32-.4-.4-.7-.12-.4-.07-.82.13-1.19s.53-.63.93-.75c.14-.04.29-.06.44-.06.69,0,1.31.46,1.51,1.14.25.83-.22,1.7-1.04,1.95ZM211.19,236.55h0c.42,0,.81.17,1.11.46s.46.69.45,1.12c0,.42-.16.81-.45,1.11-.29.3-.69.46-1.11.47-.42,0-.81-.16-1.11-.46-.29-.29-.45-.68-.46-1.14,0-.86.71-1.56,1.56-1.56ZM208.92,248.02c.3-.3.69-.46,1.11-.46s.81.16,1.13.48c.61.61.61,1.6,0,2.21-.3.3-.69.46-1.11.46s-.81-.16-1.13-.48c-.3-.3-.46-.69-.46-1.11s.16-.81.46-1.11ZM206.59,258.94c.28-.22.62-.34.97-.34.48,0,.93.22,1.25.62.26.33.38.74.33,1.15s-.26.79-.58,1.05c-.27.22-.62.34-.97.34-.42,0-.81-.16-1.11-.46-.04-.04-.08-.09-.14-.16-.54-.67-.42-1.66.25-2.2ZM205.65,253.84c-.07-.06-.13-.12-.18-.19-.47-.6-.45-1.44.06-2.01.3-.33.72-.53,1.17-.53.38,0,.75.14,1.06.42.31.28.5.66.52,1.08.02.42-.11.82-.39,1.13-.3.33-.72.53-1.17.53-.38,0-.75-.14-1.07-.42ZM205.75,239.47c.3-.3.69-.46,1.11-.46s.81.16,1.13.48c.61.61.61,1.6,0,2.21-.3.3-.69.46-1.11.46s-.81-.16-1.13-.48c-.61-.61-.61-1.6,0-2.21ZM205.36,245.39c.3-.3.69-.46,1.11-.46s.81.16,1.13.48c.3.3.46.69.46,1.11s-.16.81-.46,1.11c-.3.3-.69.46-1.11.46s-.81-.16-1.13-.48c-.61-.61-.61-1.6,0-2.21ZM204.68,257.03c-.3.38-.75.59-1.23.59-.35,0-.7-.12-.99-.36-.05-.04-.09-.08-.14-.12-.56-.56-.61-1.45-.12-2.08.3-.38.75-.6,1.23-.6.35,0,.69.12.99.36.68.54.79,1.53.25,2.2ZM201.82,260.44c-.29.43-.78.69-1.3.69-.31,0-.61-.09-.88-.27-.09-.06-.18-.13-.25-.21-.52-.52-.6-1.34-.2-1.96.29-.44.78-.71,1.31-.71.3,0,.6.09.9.28.35.23.58.59.67,1s0,.83-.23,1.18ZM204.53,250.91c-.28.49-.8.79-1.36.79-.27,0-.54-.07-.81-.22-.17-.1-.32-.23-.44-.38-.4-.51-.46-1.19-.13-1.76.28-.48.8-.79,1.36-.79.27,0,.54.07.81.22.75.43,1.01,1.39.58,2.14ZM201.65,242.9c.3-.3.69-.46,1.11-.46s.81.16,1.13.48c.61.61.61,1.6,0,2.21-.3.3-.69.46-1.11.46s-.81-.16-1.13-.48c-.3-.3-.46-.69-.46-1.11s.16-.81.46-1.11ZM201.23,253.22c.14.39.12.82-.06,1.2-.26.54-.81.89-1.41.89-.23,0-.46-.05-.71-.17-.16-.08-.31-.18-.43-.3-.47-.47-.59-1.19-.3-1.79.26-.54.81-.89,1.41-.89.24,0,.46.05.7.17.38.18.66.5.8.89ZM200.67,248.83c-.21.64-.81,1.08-1.49,1.08-.17,0-.33-.03-.52-.09-.29-.09-.55-.27-.74-.51-.33-.41-.43-.96-.26-1.46.21-.65.81-1.08,1.49-1.08.17,0,.33.03.52.09.82.27,1.27,1.15,1,1.97ZM197.66,241.68c.3-.3.69-.46,1.11-.46s.81.16,1.13.48c.3.3.46.69.46,1.11s-.16.81-.46,1.11c-.3.3-.69.46-1.11.46s-.81-.16-1.13-.48c-.3-.3-.46-.69-.46-1.11s.16-.81.46-1.11ZM197.16,252.64c-.16.72-.79,1.22-1.53,1.22-.12,0-.23-.01-.38-.05-.29-.07-.55-.21-.76-.42-.38-.38-.54-.92-.42-1.45.16-.72.79-1.22,1.53-1.22.12,0,.23.01.38.05.84.19,1.37,1.03,1.18,1.87ZM193.33,247.24c.09-.8.75-1.4,1.55-1.4.06,0,.11,0,.21.01.86.1,1.47.88,1.37,1.73-.09.79-.76,1.39-1.55,1.39-.06,0-.12,0-.2-.01-.42-.05-.79-.25-1.05-.58-.26-.33-.38-.73-.33-1.15ZM192.27,255.52c.86,0,1.56.71,1.55,1.58,0,.86-.71,1.55-1.57,1.55h-.03c-.42,0-.81-.16-1.11-.46s-.46-.69-.46-1.1c0-.86.7-1.57,1.61-1.57ZM191.08,276.89c-.12.28-.41.5-.72.54-1.26.18-3.48,1.06-5.17,2.04-.25.15-.48.22-.68.22-.1,0-.19-.02-.28-.05l-.09-.03-.46-.46-.03-.09c-.1-.28-.05-.59.17-.97.99-1.69,1.87-3.91,2.05-5.17.06-.44.44-.79.87-.79.2,0,.57.08.85.6.03.05.14.23.65.84.36.47.63.83.72.94.19.15,1.01.78,1.94,1.47l.06.04.04.06c.17.24.2.53.08.8ZM193.18,263.77c-.42,0-.81-.16-1.11-.46-.29-.3-.46-.69-.46-1.11,0-.86.7-1.56,1.56-1.56h.03c.86,0,1.56.7,1.56,1.55,0,.86-.69,1.57-1.59,1.58ZM195.04,257.27c.19-.66.81-1.12,1.5-1.12.15,0,.3.02.49.08.83.25,1.29,1.13,1.04,1.95-.2.66-.8,1.11-1.5,1.11-.15,0-.31-.02-.47-.07-.25-.07-.48-.21-.66-.39-.41-.41-.56-1-.39-1.55ZM197.41,264.81c-.26,0-.51-.07-.75-.19-.14-.08-.27-.17-.39-.28-.48-.48-.6-1.22-.28-1.83.27-.52.8-.84,1.39-.84.25,0,.5.06.77.2.37.2.64.53.76.93.12.4.08.82-.12,1.19-.27.51-.8.82-1.38.82ZM199.28,267.35c-.11-.11-.21-.24-.29-.39-.2-.37-.24-.79-.12-1.19.12-.4.39-.73.76-.93.23-.12.48-.19.74-.19.58,0,1.11.32,1.4.87.4.77.1,1.71-.67,2.11-.22.12-.47.18-.72.18-.41,0-.82-.17-1.11-.46ZM201.42,272.01c-.42,0-.81-.16-1.1-.46-.3-.3-.46-.69-.46-1.15,0-.86.71-1.55,1.57-1.55h.01c.86,0,1.56.71,1.55,1.6,0,.86-.7,1.56-1.57,1.56ZM202.96,264.23c-.08-.08-.15-.16-.21-.26-.48-.72-.29-1.69.43-2.17.26-.17.56-.26.87-.26.52,0,1.01.26,1.33.74.47.72.27,1.69-.46,2.17-.26.17-.55.26-.85.26-.41,0-.82-.17-1.11-.46ZM204.4,267.5c-.12-.4-.08-.82.12-1.19.2-.37.53-.64.93-.76.15-.05.3-.07.46-.07.69,0,1.29.45,1.51,1.15.24.83-.23,1.7-1.06,1.94-.14.04-.29.06-.44.06-.41,0-.82-.17-1.11-.46-.18-.18-.32-.41-.4-.68ZM206.53,272.96c-.42,0-.81-.16-1.1-.46-.3-.3-.46-.69-.46-1.13,0-.42.16-.81.45-1.11.29-.3.69-.46,1.1-.47h.01c.86,0,1.56.7,1.56,1.6,0,.86-.71,1.56-1.57,1.56ZM208.47,264.54c-.37-.78-.04-1.71.74-2.09.21-.1.44-.15.67-.15.6,0,1.16.35,1.43.92.18.38.2.8.07,1.2-.14.39-.42.71-.8.89-.21.1-.44.15-.68.15-.41,0-.82-.17-1.11-.46-.12-.12-.23-.27-.32-.46ZM212.65,268.86c-.22.35-.57.6-.98.69-.11.03-.23.04-.35.04-.41,0-.81-.17-1.11-.46-.21-.21-.35-.47-.42-.79-.09-.41-.02-.83.2-1.18s.57-.6.98-.69c.11-.03.23-.04.35-.04.74,0,1.36.5,1.53,1.25.09.41.02.83-.2,1.18ZM212.53,261.7c-.15-.12-.28-.27-.4-.47-.21-.36-.26-.78-.15-1.19.11-.4.37-.74.73-.95.24-.14.51-.21.78-.21.56,0,1.08.3,1.37.81.21.36.26.78.15,1.19s-.37.74-.73.95c-.24.14-.51.21-.78.21-.35,0-.7-.12-.98-.34ZM213.79,264.92c-.13-.4-.1-.82.09-1.19.19-.37.51-.65.91-.78.16-.05.32-.08.49-.08.68,0,1.28.43,1.5,1.11.27.82-.18,1.71-1,1.97-.16.05-.32.08-.49.08-.35,0-.7-.12-.98-.34-.24-.19-.42-.45-.52-.77ZM216.38,270.29c-.06,0-.11,0-.17,0-.35,0-.7-.12-.97-.34-.33-.26-.53-.64-.58-1.08-.1-.86.52-1.64,1.37-1.73.06,0,.12-.01.18-.01.79,0,1.46.6,1.56,1.43.09.86-.53,1.63-1.39,1.73ZM218.48,259.73c.3-.3.69-.46,1.11-.46s.81.16,1.13.48c.3.3.46.69.46,1.11s-.16.81-.46,1.11c-.3.3-.69.46-1.11.46s-.81-.16-1.13-.48c-.61-.61-.61-1.6,0-2.21ZM221.94,265.96c-.3.3-.69.46-1.11.46s-.81-.16-1.13-.48c-.61-.61-.61-1.6,0-2.21.3-.3.69-.46,1.11-.46s.81.16,1.13.48c.3.3.46.69.46,1.11s-.16.81-.46,1.11ZM224.15,257.87c-.3.3-.69.46-1.11.46s-.81-.16-1.13-.48c-.3-.3-.46-.69-.46-1.11s.16-.81.46-1.11c.3-.3.69-.46,1.11-.46s.81.16,1.13.48c.3.3.46.69.46,1.11s-.16.81-.46,1.11ZM226.61,253.53c-.29.3-.69.46-1.15.46-.41,0-.8-.17-1.1-.46-.3-.3-.46-.7-.46-1.12,0-.86.71-1.55,1.56-1.55h.03c.86,0,1.56.7,1.56,1.56,0,.42-.16.81-.45,1.11Z"/>
        <polygon class="cls-3" points="182.02 285.13 182.38 284.06 182.36 283.89 179.69 281.22 179.53 281.22 179.18 282.29 177.38 285.16 176.64 286.02 176.65 286.18 179.32 288.85 179.48 288.86 180.23 288 182.02 285.13"/>
        <polygon class="cls-3" points="185.13 288.24 185.49 287.17 185.47 287 182.8 284.33 182.64 284.33 182.29 285.4 180.49 288.27 179.75 289.13 179.76 289.29 182.43 291.96 182.59 291.97 183.34 291.11 185.13 288.24"/>
        <path class="cls-3" d="M188.62,290.15l-2.72-2.72h-.15s-.36,1.08-.36,1.08l-1.79,2.87-.74.86v.16s1.76,1.76,1.76,1.76c.13,1.01.63,2.04,1.47,2.88.42.42,1.98-.44,3.47-1.94,1.5-1.5,2.36-3.05,1.94-3.47-.84-.84-1.87-1.33-2.88-1.47Z"/>
        <path class="cls-3" d="M177.57,278.84c.11.11-.76,1.14-1.93,2.31-1.17,1.17-2.21,2.03-2.31,1.93l-.11-.06c-.09.14-.13.23-.1.26l1.81,1.81c.05.05.21,0,.45-.16l.84.84h.16s.74-.85.74-.85l1.79-2.87.28-.85c.3-.41.45-.68.37-.76l-1.81-1.81s-.12,0-.27.1v.03s.06.09.06.09Z"/>
        <path class="cls-3" d="M175.99,276.26c-1.21-2.63-1.63-8.2-1.8-12.17-.11-2.61-.41-5.74-.73-7.59l-.04.18c-.23-1.68-.55-3.36-.91-4.97-1.59-7.12-8.07-16.23-12.54-19.71-.29-.22-.58-.44-.89-.65h0s0,0-.01,0c-.07-.05-.15-.1-.22-.15-.01,0-.02-.01-.03-.02-.07-.05-.15-.1-.22-.15-.01,0-.02-.02-.04-.02-.07-.05-.15-.1-.23-.15,0,0-.02-.01-.03-.02-.4-.25-.82-.5-1.27-.73-.03-.01-.05-.03-.08-.04-.06-.03-.13-.06-.19-.1-.04-.02-.07-.04-.11-.05-.06-.03-.12-.06-.18-.09-.04-.02-.08-.04-.12-.06-.06-.03-.12-.05-.18-.08-.04-.02-.09-.04-.13-.06-.06-.03-.12-.05-.18-.07-.05-.02-.09-.04-.14-.06-.06-.02-.12-.05-.18-.07-.05-.02-.1-.04-.15-.06-.06-.02-.12-.04-.17-.07-.05-.02-.1-.04-.16-.06-.06-.02-.12-.04-.18-.06-.05-.02-.11-.04-.16-.05-.06-.02-.12-.04-.18-.06-.06-.02-.11-.03-.17-.05-.06-.02-.12-.04-.18-.05-.06-.02-.12-.03-.18-.05-.06-.02-.11-.03-.17-.05-.08-.02-.17-.04-.25-.06-.08-.02-.16-.04-.25-.06-.08-.02-.15-.03-.23-.05-.06-.01-.11-.02-.17-.03-.07-.01-.14-.03-.21-.04-.06-.01-.12-.02-.18-.03-.07-.01-.14-.02-.2-.03-.06,0-.13-.02-.19-.03-.07-.01-.14-.02-.21-.03-.06,0-.13-.02-.19-.02-.07,0-.14-.02-.21-.02-.07,0-.13-.01-.2-.02-.07,0-.14-.01-.21-.02-.07,0-.14-.01-.2-.02-.07,0-.14,0-.22-.01-.07,0-.14,0-.21-.01-.07,0-.15,0-.22,0-.07,0-.14,0-.21,0-.08,0-.15,0-.23,0-.07,0-.14,0-.21,0-.08,0-.16,0-.24,0-.07,0-.14,0-.21,0-.02,0-.04,0-.06,0l-.12-.07s-.78.03-.99.05c-1.6.12-3.32.5-5.12,1.15l-.19.07s-.02-.07-.03-.1c-4.04,1.46-8.13,4.12-11.36,7.32-3.22,3.25-5.89,7.38-7.35,11.45.02,0,.04.01.06.02l-.09.25c-.63,1.77-1,3.47-1.12,5.04-.02.22-.05.99-.05.99l.07.13s0,.04,0,.06c0,.07,0,.14,0,.21,0,.08,0,.16,0,.24,0,.07,0,.14,0,.21,0,.08,0,.15,0,.23,0,.07,0,.14,0,.21,0,.07,0,.15,0,.22,0,.07,0,.14.01.21,0,.07,0,.14.01.22,0,.07.01.14.02.2,0,.07.01.14.02.21,0,.07.01.13.02.2,0,.07.02.14.02.21,0,.06.02.13.02.19,0,.07.02.14.03.21,0,.06.02.13.03.19.01.07.02.14.03.2.01.06.02.12.03.18.01.07.03.14.04.21.01.06.02.12.03.17.02.08.03.15.05.23.02.08.04.16.06.25.02.08.04.17.06.25.01.06.03.11.05.17.02.06.03.12.05.18.02.06.03.12.05.18.02.06.03.11.05.17.02.06.04.12.06.18.02.05.04.11.05.16.02.06.04.12.06.18.02.05.04.11.06.16.02.06.04.12.07.17.02.05.04.1.06.15.02.06.05.12.07.18.02.05.04.1.06.14.02.06.05.12.07.18.02.04.04.09.06.13.03.06.05.12.08.18.02.04.04.08.06.12.03.06.06.12.09.18.02.04.04.07.05.11.03.06.06.13.1.19.01.03.03.05.04.08.23.44.47.86.73,1.27,0,0,.01.02.02.03.05.08.1.15.15.23,0,.01.02.02.02.04.05.07.1.15.15.22,0,.01.01.02.02.03.05.07.1.15.15.22,0,0,0,0,0,.01h0c.21.3.43.6.65.89,3.48,4.47,12.59,10.96,19.71,12.54,1.58.35,3.24.66,4.9.9l-.08.02c1.85.32,4.97.62,7.59.73,3.97.17,9.54.6,12.17,1.8.98.45,1.74.94,2.29,1.35.32-.15,1.28-.98,2.28-1.99s1.86-1.99,1.99-2.29c-.41-.55-.9-1.32-1.35-2.29ZM165.87,255.52h0c.86,0,1.56.71,1.56,1.57,0,.42-.16.81-.46,1.1-.3.3-.69.46-1.14.46-.86,0-1.56-.7-1.56-1.55,0-.42.16-.81.45-1.11.29-.3.69-.46,1.1-.47h.05ZM161.95,246.44c.26-.33.63-.53,1.09-.59.06,0,.12,0,.17,0,.8,0,1.47.6,1.55,1.4.05.41-.07.82-.33,1.15-.26.33-.64.53-1.08.58-.06,0-.12.01-.18.01-.79,0-1.46-.6-1.55-1.38-.05-.42.07-.82.33-1.15ZM161.14,251.46c.22-.35.57-.6,1.01-.7.11-.03.23-.04.35-.04.74,0,1.36.5,1.53,1.22.12.53-.04,1.07-.42,1.45-.21.21-.47.35-.79.43-.11.03-.23.04-.35.04-.74,0-1.36-.5-1.53-1.22-.09-.41-.02-.83.2-1.18ZM158.22,241.68c.3-.3.69-.46,1.11-.46s.81.16,1.11.46c.61.61.61,1.6-.02,2.24-.3.3-.69.46-1.11.46s-.81-.16-1.11-.46c-.61-.61-.61-1.6.02-2.24ZM157.51,247.64c.19-.37.51-.65.94-.79.16-.05.32-.08.49-.08.68,0,1.28.43,1.49,1.08.17.5.07,1.05-.26,1.46-.19.24-.44.42-.77.52-.16.05-.32.08-.49.08-.68,0-1.28-.43-1.49-1.08-.13-.4-.1-.82.09-1.19ZM157.69,252.31c.21-.1.44-.15.68-.15.6,0,1.15.35,1.41.89.29.6.16,1.32-.3,1.78-.12.12-.27.23-.46.32-.21.1-.44.15-.67.15-.6,0-1.16-.35-1.41-.89-.37-.78-.04-1.72.76-2.1ZM156.74,258.24c.26-.17.55-.25.85-.25.53,0,1.02.27,1.31.71.4.62.32,1.44-.2,1.96-.08.08-.16.15-.26.21-.26.17-.56.26-.87.26-.52,0-1.01-.26-1.3-.69-.48-.72-.29-1.69.47-2.2ZM155.77,257.15s-.09.08-.16.14c-.28.22-.62.34-.97.34-.48,0-.93-.22-1.22-.59-.54-.67-.42-1.66.28-2.22.28-.22.62-.34.97-.34.48,0,.93.22,1.23.6.49.62.44,1.52-.12,2.08ZM154.22,242.9c.3-.3.69-.46,1.11-.46s.81.16,1.11.46c.3.3.46.69.46,1.11s-.16.81-.48,1.13c-.3.3-.69.46-1.11.46s-.81-.16-1.11-.46c-.3-.3-.46-.69-.46-1.11s.16-.81.48-1.13ZM153.41,249.72c.11-.4.37-.74.76-.96.24-.14.51-.21.78-.21.56,0,1.08.3,1.36.79.32.56.27,1.25-.13,1.76-.12.15-.27.28-.47.4-.24.14-.51.21-.78.21-.56,0-1.08-.3-1.36-.79-.21-.36-.26-.78-.15-1.19ZM153.19,246.49c0,.42-.16.81-.48,1.13-.3.3-.69.46-1.11.46s-.81-.16-1.11-.46c-.3-.3-.46-.69-.46-1.11s.16-.81.48-1.13c.3-.3.69-.46,1.11-.46s.81.16,1.11.46c.3.3.46.69.46,1.11ZM151.38,254.25c-.45,0-.87-.19-1.17-.53-.28-.31-.42-.71-.39-1.13.03-.42.21-.8.55-1.1.29-.25.66-.39,1.04-.39.45,0,.87.19,1.17.53.51.57.53,1.42.05,2.01-.05.07-.12.13-.21.22-.29.25-.66.39-1.04.39ZM151.74,261.16c-.04.05-.08.1-.13.14-.3.29-.69.46-1.11.46-.35,0-.69-.12-.97-.34-.33-.26-.54-.63-.58-1.05s.07-.82.35-1.18c.3-.38.75-.59,1.23-.59.35,0,.7.12.97.34.68.54.79,1.52.24,2.21ZM150.13,239.47c.3-.3.69-.46,1.11-.46s.81.16,1.11.46c.3.3.46.69.46,1.11s-.16.81-.48,1.13c-.3.3-.69.46-1.11.46s-.81-.16-1.11-.46c-.3-.3-.46-.69-.46-1.11s.16-.81.48-1.13ZM149.17,248.02c.3.3.46.69.46,1.11s-.16.81-.48,1.13c-.3.3-.69.46-1.11.46s-.81-.16-1.11-.46c-.61-.61-.61-1.6.02-2.24.3-.3.69-.46,1.11-.46s.81.16,1.11.46ZM148.72,256.81c.02.42-.11.82-.41,1.16-.06.07-.12.13-.19.18-.28.22-.62.34-.97.34-.38,0-.75-.14-1.04-.39-.31-.28-.5-.66-.52-1.08s.11-.82.41-1.16c.3-.33.72-.53,1.17-.53.38,0,.75.14,1.04.39.31.28.5.66.52,1.08ZM145.79,237.01c.29-.3.69-.46,1.11-.46h0c.86,0,1.56.7,1.56,1.61,0,.41-.17.8-.46,1.1-.3.3-.69.46-1.12.46-.86,0-1.56-.71-1.55-1.59,0-.42.16-.81.45-1.11ZM144.77,241.99c.19-.66.81-1.12,1.5-1.12.15,0,.3.02.44.06.4.12.73.39.93.75s.24.79.11,1.24c-.07.24-.21.47-.39.65-.29.29-.7.46-1.11.46-.15,0-.31-.02-.46-.07-.83-.25-1.29-1.13-1.04-1.97ZM145.29,245.08c.35.23.59.58.68.99.09.41,0,.83-.25,1.22-.06.09-.12.17-.19.24-.29.29-.69.46-1.11.46-.31,0-.61-.09-.87-.26-.72-.48-.91-1.45-.42-2.18.29-.44.78-.71,1.31-.71.3,0,.6.09.85.25ZM139.88,256.02c.3-.3.69-.46,1.11-.46s.81.16,1.11.46.46.69.46,1.11-.16.81-.48,1.13c-.3.3-.69.46-1.11.46s-.81-.16-1.11-.46c-.61-.61-.61-1.6.02-2.24ZM140.02,248.64c.26-.17.56-.26.87-.26.52,0,1.01.26,1.3.69.41.62.33,1.45-.19,1.98-.07.07-.15.14-.28.22-.25.17-.55.25-.85.25-.53,0-1.02-.27-1.31-.71-.47-.72-.27-1.69.47-2.17ZM142.49,254.7c-.3-.3-.46-.69-.46-1.11s.16-.81.48-1.13c.3-.3.69-.46,1.11-.46s.81.16,1.11.46c.61.61.61,1.6-.02,2.24-.3.3-.69.46-1.11.46s-.81-.16-1.11-.46ZM140.75,238.04c.29-.3.69-.46,1.1-.46h0c.86,0,1.56.7,1.56,1.6,0,.42-.16.81-.46,1.11-.3.3-.69.46-1.11.46-.86,0-1.56-.7-1.56-1.59,0-.42.16-.81.45-1.11ZM139.45,242.62c.27-.52.8-.84,1.39-.84.25,0,.5.06.73.18.37.19.64.52.77.92.12.4.09.82-.12,1.22-.07.14-.17.27-.28.38-.29.29-.69.46-1.11.46-.25,0-.5-.06-.72-.18-.77-.4-1.06-1.35-.65-2.14ZM139.24,245.62c.32.61.21,1.35-.28,1.83-.11.11-.24.21-.41.29-.22.12-.48.18-.73.18-.58,0-1.11-.32-1.39-.84-.4-.76-.11-1.71.69-2.13.22-.12.47-.18.72-.18.59,0,1.12.32,1.39.84ZM138.04,252.9c-.18.18-.4.31-.69.4-.14.04-.29.06-.44.06-.69,0-1.31-.46-1.5-1.12-.12-.4-.07-.82.13-1.19s.53-.63.95-.76c.15-.05.3-.07.46-.07.69,0,1.29.45,1.5,1.11.17.55.02,1.15-.39,1.56ZM135.37,240.87c.3-.3.69-.46,1.11-.46s.81.16,1.11.46c.3.3.46.69.46,1.11s-.16.81-.48,1.13c-.3.3-.69.46-1.11.46s-.81-.16-1.11-.46c-.3-.3-.46-.69-.46-1.11s.16-.81.48-1.13ZM133.61,245.83h.03c.86,0,1.56.7,1.56,1.57,0,.42-.16.81-.46,1.11-.3.3-.69.46-1.15.46-.42,0-.81-.17-1.11-.46s-.46-.69-.45-1.11c0-.86.7-1.56,1.56-1.56ZM131.48,253.53c-.29-.3-.46-.69-.45-1.11,0-.86.71-1.56,1.56-1.56h.03c.86,0,1.56.7,1.56,1.55,0,.42-.16.82-.46,1.12-.29.29-.68.46-1.14.46-.42,0-.81-.17-1.11-.46ZM133.94,257.87c-.3-.3-.46-.69-.46-1.11s.16-.81.48-1.13c.3-.3.69-.46,1.11-.46s.81.16,1.11.46c.3.3.46.69.46,1.11s-.16.81-.48,1.13c-.3.3-.69.46-1.11.46s-.81-.16-1.11-.46ZM138.36,265.96c-.3.3-.69.46-1.11.46s-.81-.16-1.11-.46c-.3-.3-.46-.69-.46-1.11s.16-.81.48-1.13c.3-.3.69-.46,1.11-.46s.81.16,1.11.46c.61.61.61,1.6-.02,2.24ZM139.59,261.97c-.3.3-.69.46-1.11.46s-.81-.16-1.11-.46c-.61-.61-.61-1.6.02-2.24.3-.3.69-.46,1.11-.46s.81.16,1.11.46c.3.3.46.69.46,1.11s-.16.81-.48,1.13ZM143.43,268.91c-.04.42-.25.79-.58,1.05-.28.22-.62.34-.97.34-.06,0-.11,0-.17,0-.86-.09-1.48-.87-1.38-1.77.09-.79.76-1.38,1.55-1.38.06,0,.12,0,.18.01.42.05.79.26,1.05.58s.38.74.33,1.17ZM144.29,264.95c-.1.29-.27.55-.51.74-.28.22-.62.34-.98.34-.17,0-.33-.03-.49-.08-.4-.13-.72-.41-.91-.78-.19-.37-.22-.8-.08-1.23.21-.65.81-1.08,1.49-1.08.17,0,.33.03.49.08.4.13.72.41.91.78.19.37.22.8.08,1.23ZM143.8,261.83c-.75-.43-1.01-1.39-.56-2.16.28-.49.8-.79,1.36-.79.27,0,.54.07.78.21.75.43,1.01,1.39.56,2.17-.1.17-.23.32-.38.44-.28.22-.62.34-.98.34-.27,0-.54-.07-.78-.21ZM148.29,268.36c-.07.29-.21.55-.42.76-.29.29-.69.46-1.11.46-.12,0-.23-.01-.34-.04-.41-.09-.76-.34-.98-.69-.22-.35-.3-.77-.2-1.21.16-.71.8-1.22,1.53-1.22.12,0,.23.01.34.04.41.09.76.34.98.69.22.35.3.77.2,1.21ZM149.61,264.57c-.08.16-.18.3-.3.43-.29.29-.69.46-1.11.46-.24,0-.46-.05-.68-.15-.38-.18-.66-.5-.8-.89-.14-.39-.11-.82.08-1.22.26-.54.81-.89,1.41-.89.23,0,.46.05.67.15.38.18.66.5.8.89.14.39.12.82-.08,1.23ZM152.66,272.5c-.3.29-.69.46-1.11.46-.86,0-1.56-.7-1.56-1.61,0-.86.71-1.55,1.56-1.55h.01c.42,0,.81.17,1.1.47.29.3.45.69.45,1.13,0,.42-.16.82-.46,1.11ZM153.68,267.52c-.07.25-.21.48-.39.66-.29.29-.7.46-1.11.46-.15,0-.3-.02-.44-.06-.4-.12-.73-.39-.93-.75s-.24-.79-.11-1.24c.2-.66.8-1.11,1.5-1.11.15,0,.31.02.46.07.4.12.73.39.93.76.2.37.24.79.11,1.21ZM153.17,264.44c-.72-.47-.93-1.44-.43-2.21.29-.43.78-.69,1.3-.69.31,0,.61.09.87.27.72.48.91,1.45.42,2.18-.06.09-.13.18-.2.25-.29.29-.69.46-1.11.46-.3,0-.6-.09-.86-.26ZM157.78,271.55c-.3.3-.69.46-1.11.46-.86,0-1.56-.7-1.56-1.58,0-.86.69-1.57,1.55-1.58h0c.86,0,1.56.7,1.56,1.59,0,.42-.16.81-.46,1.11ZM159.09,266.96c-.07.14-.17.27-.28.38-.29.29-.7.46-1.11.46-.25,0-.5-.06-.72-.18-.37-.19-.64-.52-.77-.92-.13-.4-.09-.82.13-1.24.27-.51.8-.82,1.38-.82.26,0,.52.07.74.19.37.2.64.53.76.93.12.4.08.82-.13,1.2ZM161.82,264.34c-.11.11-.24.21-.39.28-.23.12-.48.19-.74.19-.58,0-1.11-.31-1.38-.82-.2-.37-.24-.79-.12-1.19.12-.4.39-.73.81-.96.22-.12.47-.18.72-.18.59,0,1.12.32,1.39.84.32.61.2,1.34-.28,1.83ZM162.66,258.82c-.18.18-.41.32-.68.4-.15.05-.3.07-.46.07-.69,0-1.29-.45-1.5-1.11-.25-.83.22-1.7,1.09-1.97.15-.04.29-.06.44-.06.69,0,1.31.46,1.5,1.12.16.55.01,1.15-.39,1.55ZM166.02,263.3c-.3.3-.69.46-1.14.46-.42,0-.81-.17-1.1-.47-.29-.3-.45-.69-.45-1.11,0-.86.71-1.55,1.56-1.55h.03c.86,0,1.56.7,1.56,1.56,0,.42-.16.81-.46,1.11ZM174.45,279.06l-.03.09-.46.46-.09.03c-.09.03-.18.05-.28.05-.21,0-.43-.07-.68-.22-1.69-.99-3.91-1.87-5.17-2.04-.31-.04-.6-.26-.72-.54-.11-.26-.08-.55.09-.8l.04-.06.06-.04c.94-.69,1.76-1.33,1.94-1.47.09-.12.37-.47.74-.96.51-.61.62-.79.64-.82.28-.52.65-.6.85-.6.42,0,.8.35.87.79.18,1.26,1.06,3.48,2.05,5.17.22.37.27.69.17.97Z"/>
      </g>
      <g>
        <path class="cls-3" d="M167.59,64.08c-1.85-2.05-4.13-3.18-6.76-3.34-.14-.04-.28-.06-.43-.06h-10.56v48.99h10.28c2.85,0,5.31-1.12,7.3-3.33,1.97-2.18,2.97-4.85,2.97-7.94v-13.23c0-2.63-.75-4.99-2.24-7.02,1.49-1.91,2.24-4.16,2.24-6.71,0-2.82-.95-5.3-2.81-7.37ZM162.42,98.41c0,.86-.23,1.56-.72,2.15-.45.55-.95.8-1.57.8h-2.29v-19.13h2.29c.62,0,1.12.26,1.57.8.49.59.72,1.29.72,2.15v13.23ZM161.84,73.08c-.39.47-.84.74-1.25.83h-2.76v-4.92h2.29c.64,0,1.17.23,1.61.7.46.48.68,1.06.68,1.76,0,.63-.19,1.16-.58,1.63Z"/>
        <rect class="cls-3" x="175.06" y="58.2" width="7.98" height="51.48"/>
        <path class="cls-3" d="M210.78,95.32c-.61-.25-1.24-.69-1.86-1.3-.68-.67-1.31-1.36-1.88-2.05-.61-.74-1.29-1.48-2.02-2.21-.79-.78-1.77-1.41-2.9-1.89-.99-.42-2.1-.65-3.29-.71v7.36c.52.09.99.31,1.45.67v4.14c0,.86-.23,1.56-.72,2.15-.45.55-.95.8-1.57.8s-1.12-.26-1.57-.8c-.48-.59-.72-1.29-.72-2.15v-27.3c0-.86.23-1.56.72-2.15.45-.55.95-.8,1.57-.8s1.12.26,1.57.8c.49.59.72,1.29.72,2.15v4.58h7.98v-4.58c0-3.09-1-5.76-2.97-7.94-2-2.21-4.45-3.33-7.3-3.33s-5.31,1.12-7.3,3.33c-1.97,2.18-2.97,4.85-2.97,7.94v27.3c0,3.09,1,5.76,2.97,7.94,1.99,2.21,4.45,3.33,7.3,3.33,2.55,0,4.81-.93,6.75-2.76,1.64-1.56,2.72-3.45,3.22-5.65.74.31,1.53.53,2.37.68l.98.17v-7.51l-.52-.21Z"/>
      </g>
    </g>
  </g>
  <g>
    <path class="cls-1" d="M326.21,75.91C293.75,31.78,237.38,4.36,179.1,4.36S64.46,31.78,32,75.91C4.69,113.04-2.68,158.08,11.25,202.73c9.13,29.25,22.92,73.45,48.31,109.47,30.27,42.94,70.49,64.72,119.54,64.72s89.28-21.77,119.54-64.72c25.39-36.02,39.18-80.22,48.31-109.47,13.93-44.66,6.57-89.7-20.74-126.83ZM343.14,201.54c-9.05,29.01-22.73,72.85-47.76,108.35-29.47,41.82-68.59,63.02-116.27,63.02s-86.8-21.2-116.27-63.02c-25.02-35.5-38.7-79.34-47.76-108.35-13.55-43.41-6.39-87.19,20.15-123.27C66.94,35.15,122.07,8.36,179.1,8.36s112.16,26.79,143.89,69.92c26.54,36.08,33.69,79.85,20.15,123.26Z"/>
    <path class="cls-1" d="M298.16,96.54c-26.02-35.38-71.64-57.36-119.06-57.36s-93.04,21.98-119.06,57.36c-20.88,28.38-26.26,61.52-15.55,95.83,8.48,27.17,21.29,68.23,43.53,99.78,24.02,34.08,52.97,49.96,91.08,49.96s67.06-15.87,91.08-49.96c22.24-31.55,35.05-72.61,43.53-99.78,10.7-34.3,5.32-67.44-15.55-95.82ZM309.9,191.17c-8.4,26.93-21.1,67.63-42.98,98.66-23.21,32.93-51.11,48.26-87.81,48.26s-64.61-15.33-87.81-48.26c-21.88-31.04-34.58-71.74-42.98-98.67-10.31-33.04-5.14-64.94,14.96-92.26,25.28-34.38,69.67-55.73,115.84-55.73s90.55,21.35,115.84,55.73c20.09,27.32,25.26,59.22,14.96,92.26Z"/>
  </g>
  <g>
    <path class="cls-2" d="M90.29,304.86l2.79,3.19.08.09s.05.07.07.11c.69.87.98,1.87.87,2.99-.1,1.12-.58,2.05-1.42,2.79-.83.73-1.79,1.08-2.88,1.04-.15,1.12-.66,2.06-1.53,2.81l-4.25,3.72c-.93.81-1.99,1.19-3.19,1.14s-2.18-.52-2.96-1.4l-.06-.06-2.74-3.13,15.2-13.3ZM85.78,312.58l-6.69,5.85.93,1.06c.26.29.6.44,1.01.44.42,0,.79-.15,1.13-.45l4.25-3.72c.34-.29.53-.65.59-1.06.06-.41-.04-.77-.3-1.06l-.93-1.06ZM90.03,308.86l-2.12,1.85.93,1.06c.05.05.09.11.14.16.26.22.57.32.92.32.35,0,.66-.12.92-.35.29-.26.46-.58.48-.96.03-.39-.09-.73-.35-1.02l-.93-1.06Z"/>
    <path class="cls-2" d="M93.21,332.89l-1.94,2.07-3.1-2.9-2.07-1.94,1.94-2.07,9.92-10.62,1.94-2.07,2.07,1.94,2.07,1.94-1.94,2.07-2.07-1.94-1.92,2.06,3.1,2.9-1.94,2.07-3.1-2.9-6.06,6.49,3.1,2.9Z"/>
    <path class="cls-2" d="M112.87,326.45c.89.71,1.39,1.65,1.52,2.82.13,1.17-.17,2.23-.89,3.2l-5.06,6.81c-.75,1.01-1.74,1.61-2.98,1.79l-1.35,4.04-2.39-1.78.98-2.83c-.1-.06-.19-.12-.28-.18l-1.15-.85-1.69,2.28-2.28-1.69,9.39-12.64,2.65-3.57,3.41,2.53.12.09ZM109.93,327.8l-6.99,9.41,1.13.84c.31.23.68.3,1.09.21s.75-.32,1-.67l5.06-6.81c.27-.36.38-.75.35-1.16-.03-.42-.2-.74-.52-.97l-1.13-.84Z"/>
    <path class="cls-2" d="M118.92,343.8l.13.07c.51.28.93.62,1.25,1.01.32.39.55.8.68,1.22s.25.83.33,1.23c.08.4.19.8.33,1.21.13.41.31.75.53,1.01l-1.23,2.22c-.41-.32-.75-.69-1.01-1.08-.65.86-1.5,1.41-2.54,1.65-1.05.25-2.03.11-2.95-.39-1.03-.57-1.7-1.43-2-2.59s-.16-2.28.44-3.36l5.85-10.59c.6-1.08,1.46-1.8,2.61-2.16,1.14-.36,2.23-.26,3.26.31s1.7,1.43,2,2.59.16,2.28-.44,3.36l-.77,1.4-2.48-1.37.77-1.4c.22-.39.28-.79.19-1.2-.09-.41-.3-.71-.65-.9-.34-.19-.71-.21-1.1-.07-.39.14-.7.41-.91.8l-5.85,10.59c-.22.39-.28.79-.19,1.2.09.41.3.71.64.9s.71.21,1.1.07c.39-.14.69-.41.91-.8l.93-1.69c-.17-.48-.46-.83-.88-1.06-.04-.02-.08-.04-.13-.07l1.17-2.11Z"/>
    <path class="cls-2" d="M133.52,357.22l-1.05,2.63-3.94-1.57-2.63-1.05,1.05-2.63,5.39-13.5,1.05-2.63,2.63,1.05,2.63,1.05-1.05,2.63-2.63-1.05-1.04,2.61,3.94,1.57-1.05,2.63-3.94-1.57-3.29,8.25,3.94,1.57Z"/>
    <path class="cls-2" d="M149.4,343.94c1.09.33,1.91,1,2.47,2.04.56,1.03.68,2.13.38,3.3l-2.13,8.21c-.32,1.22-1.01,2.15-2.09,2.78l.27,4.25-2.89-.75-.16-2.99c-.11-.01-.22-.04-.33-.06l-1.38-.36-.71,2.75-2.74-.71,3.95-15.25,1.12-4.31,4.11,1.06.14.04ZM147.19,346.29l-2.94,11.34,1.36.35c.38.1.74.03,1.09-.22.34-.24.57-.58.68-1l2.13-8.21c.11-.43.08-.84-.11-1.21-.19-.37-.47-.61-.85-.71l-1.36-.35Z"/>
    <path class="cls-2" d="M158.27,350.01c.16-1.22.7-2.21,1.63-2.97.93-.75,1.98-1.06,3.14-.91,1.17.15,2.1.71,2.81,1.67.71.97.98,2.06.83,3.28l-2.06,16.02-2.81-.36.36-2.81-2.79-.36-.36,2.81-2.81-.36,2.06-16.02ZM162.53,361.15l.6-4.67.74-5.75c.06-.44-.03-.84-.26-1.19-.23-.35-.54-.55-.93-.6-.39-.05-.74.06-1.05.34-.31.28-.5.64-.55,1.08l-.74,5.75-.6,4.67,2.79.36Z"/>
    <path class="cls-2" d="M172.1,351.48c.02-1.23.46-2.27,1.3-3.13.84-.85,1.85-1.27,3.03-1.24,1.18.02,2.17.48,2.98,1.36.81.88,1.2,1.94,1.18,3.17l-.03,1.6-2.83-.05.03-1.6c0-.45-.12-.83-.39-1.15s-.6-.48-.99-.49c-.39,0-.73.14-1.01.45s-.42.69-.43,1.14l-.23,12.09c0,.45.12.83.39,1.15.27.32.6.48.99.49.39,0,.73-.14,1.01-.45.28-.31.42-.69.43-1.14l.03-1.6,2.83.05-.03,1.6c-.02,1.23-.46,2.27-1.3,3.13-.84.85-1.85,1.27-3.03,1.24-1.18-.02-2.17-.48-2.98-1.36-.81-.88-1.2-1.94-1.18-3.17l.23-12.09Z"/>
    <path class="cls-2" d="M195.66,350.61c-.2-1.21.03-2.32.71-3.31.67-.99,1.59-1.58,2.75-1.78s2.22.07,3.18.79,1.54,1.69,1.74,2.9l.26,1.57-2.8.46-.26-1.58c-.07-.44-.27-.8-.59-1.06-.32-.27-.67-.37-1.06-.3s-.69.27-.91.63-.29.75-.22,1.2l1.98,11.93c.07.44.27.8.59,1.06.32.27.67.37,1.06.3.39-.06.69-.27.91-.63s.29-.75.22-1.2l-.26-1.57,2.8-.46.26,1.58c.2,1.21-.03,2.32-.71,3.31-.67.99-1.59,1.58-2.75,1.78-1.16.19-2.22-.07-3.18-.79s-1.54-1.69-1.74-2.9l-1.98-11.93Z"/>
    <path class="cls-2" d="M212.89,342.73c1.1-.29,2.15-.13,3.17.46,1.01.59,1.69,1.47,2.04,2.62l2.45,8.12c.36,1.21.25,2.36-.34,3.46l2.44,3.5-2.86.86-1.69-2.47c-.1.05-.21.08-.32.12l-1.37.41.82,2.71-2.71.82-4.54-15.08-1.28-4.26,4.06-1.22.14-.04ZM212.22,345.89l3.38,11.22,1.35-.41c.38-.11.65-.36.82-.75.17-.39.19-.79.06-1.2l-2.45-8.12c-.13-.43-.37-.75-.72-.98-.35-.22-.72-.28-1.09-.16l-1.35.41Z"/>
    <path class="cls-2" d="M235.48,352.57l1.16,2.59-3.87,1.73-2.59,1.16-1.16-2.59-5.93-13.27-1.16-2.59,2.59-1.16,2.59-1.16,1.16,2.59-2.59,1.16,1.15,2.57,3.87-1.73,1.16,2.59-3.87,1.73,3.62,8.11,3.87-1.73Z"/>
    <path class="cls-2" d="M241.36,329.24l2.5,10.32.05.24,5.17,8.41-2.4,1.47-5.17-8.41-.19-.15-8.08-6.89,2.54-1.56,4.42,3.77-1.37-5.64,2.54-1.56Z"/>
    <path class="cls-2" d="M252.37,330.04c.92-.73,1.98-1.01,3.16-.84,1.19.17,2.16.74,2.92,1.71l2.75,3.48c.76.97,1.09,2.05.98,3.24-.11,1.19-.63,2.15-1.55,2.88-.92.73-1.98,1.01-3.16.84s-2.16-.74-2.92-1.71l-.99-1.25,2.23-1.76.99,1.25c.28.35.62.57,1.03.64.41.08.77,0,1.08-.25.31-.24.47-.57.49-.99.02-.42-.11-.8-.39-1.15l-2.75-3.48c-.28-.35-.62-.57-1.03-.64s-.77,0-1.08.25c-.92.73-1.98,1.01-3.16.84-1.19-.17-2.16-.74-2.92-1.71l-.99-1.25c-.76-.97-1.09-2.05-.98-3.24.11-1.19.63-2.15,1.55-2.88.92-.73,1.98-1.01,3.16-.84,1.19.17,2.16.74,2.92,1.71l.99,1.25-2.23,1.76-.99-1.25c-.28-.35-.62-.57-1.03-.64-.41-.08-.77,0-1.08.25-.31.24-.47.57-.49.99-.02.42.11.8.39,1.15l.99,1.25c.28.35.62.57,1.03.64.41.08.77,0,1.08-.25Z"/>
    <path class="cls-2" d="M263.52,320.14c.83-.83,1.85-1.23,3.05-1.2,1.2.03,2.23.49,3.1,1.36l3.12,3.14c.87.87,1.32,1.91,1.34,3.11.03,1.2-.38,2.21-1.21,3.04s-1.85,1.23-3.05,1.19c-1.2-.03-2.23-.49-3.1-1.36l-1.12-1.13,2.01-2,1.12,1.13c.32.32.68.49,1.1.52.42.03.76-.09,1.04-.37.28-.28.4-.62.37-1.04-.03-.42-.2-.78-.52-1.1l-3.12-3.14c-.32-.32-.68-.49-1.1-.52-.42-.03-.76.09-1.04.37-.83.83-1.85,1.23-3.05,1.19-1.2-.03-2.23-.49-3.1-1.36l-1.13-1.13c-.87-.87-1.32-1.91-1.34-3.11-.03-1.2.38-2.21,1.21-3.04.83-.83,1.85-1.23,3.05-1.2,1.2.03,2.23.49,3.1,1.36l1.13,1.13-2.01,2-1.12-1.13c-.32-.32-.68-.49-1.1-.52-.42-.03-.76.09-1.04.37-.28.28-.4.62-.37,1.04.03.42.2.78.52,1.1l1.12,1.13c.32.32.68.49,1.1.52.42.03.76-.09,1.04-.37Z"/>
    <path class="cls-2" d="M283.15,313.32l2.18,1.81-2.71,3.27-1.81,2.18-2.18-1.81-11.2-9.27-2.18-1.81,1.81-2.18,1.81-2.18,2.18,1.81-1.81,2.18,2.17,1.79,2.7-3.27,2.18,1.81-2.7,3.27,6.84,5.66,2.7-3.27Z"/>
  </g>
  <g>
    <path class="cls-3" d="M157.89,309.66c.34.09.67.02.98-.19.31-.22.51-.52.61-.91l.35-1.4c.1-.39.06-.76-.11-1.09-.17-.34-.43-.55-.77-.63s-.67-.02-.98.19-.51.52-.61.91l-2.49-.63c.27-1.08.87-1.91,1.78-2.49.92-.58,1.89-.74,2.92-.48s1.81.86,2.35,1.81c.53.94.66,1.96.39,3.04l-.35,1.4c-.27,1.08-.87,1.91-1.78,2.49-.92.58-1.89.74-2.92.48-.34-.09-.67-.02-.98.19-.31.22-.51.52-.61.91l-1.25,4.96,4.96,1.25-.63,2.49-7.44-1.88,1.88-7.44c.27-1.08.87-1.91,1.78-2.49.92-.58,1.89-.74,2.92-.48Z"/>
    <path class="cls-3" d="M168.32,308.7c.08-1.11.52-2.03,1.33-2.76.8-.73,1.73-1.05,2.8-.98,1.06.08,1.94.54,2.62,1.37s.99,1.81.91,2.92l-.8,10.91c-.08,1.11-.52,2.03-1.33,2.76-.8.73-1.73,1.05-2.8.98-1.06-.08-1.94-.54-2.62-1.37-.69-.84-.99-1.81-.91-2.92l.8-10.92ZM170.17,318.65l-.08,1.16c-.03.4.07.76.29,1.06.23.3.52.47.87.49.35.03.66-.09.93-.36.27-.27.42-.6.44-1.01l.37-5.08-2.83,3.74ZM170.88,308.89l-.37,5.08,2.83-3.74.08-1.16c.03-.4-.07-.76-.29-1.06-.23-.3-.52-.47-.87-.49-.35-.03-.66.09-.93.36s-.42.6-.44,1.01Z"/>
    <path class="cls-3" d="M186.25,311.88c.35-.03.64-.19.87-.49.23-.3.32-.66.29-1.06l-.11-1.44c-.03-.4-.18-.74-.44-1.01-.27-.27-.58-.39-.93-.36-.35.03-.64.19-.87.49-.23.3-.32.66-.29,1.06l-2.56.19c-.08-1.11.22-2.09.91-2.92.69-.84,1.56-1.29,2.62-1.37,1.06-.08,1.99.25,2.79.98.8.73,1.24,1.65,1.33,2.76l.11,1.44c.08,1.11-.22,2.09-.91,2.92s-1.56,1.29-2.62,1.37c-.35.03-.64.19-.87.49-.23.3-.32.66-.29,1.06l.37,5.1,5.1-.37.19,2.56-7.66.56-.56-7.66c-.08-1.11.22-2.09.91-2.92.69-.84,1.56-1.29,2.62-1.37Z"/>
    <path class="cls-3" d="M198.77,308.77c.36-.25.75-.42,1.18-.53,1.03-.26,2.01-.1,2.92.48.92.58,1.51,1.41,1.78,2.49l1.34,5.31c.27,1.08.14,2.09-.39,3.04-.53.94-1.32,1.55-2.35,1.81-1.03.26-2.01.1-2.92-.48-.92-.58-1.51-1.41-1.78-2.49l-1.13-4.48-.21-.83-1.34-5.31c-.27-1.08-.14-2.09.39-3.04.53-.94,1.32-1.55,2.35-1.81l.63,2.49c-.34.09-.6.3-.77.63s-.21.7-.11,1.09l.41,1.62ZM199.7,312.46l.21.83,1.13,4.48c.1.39.3.7.61.91.31.22.64.28.98.19.34-.09.6-.3.77-.63s.21-.7.11-1.09l-1.34-5.31c-.1-.39-.3-.7-.61-.91-.31-.22-.64-.28-.98-.19-.34.09-.6.3-.77.63-.17.34-.21.7-.11,1.09Z"/>
  </g>
  <path class="cls-2" d="M179.1,338.1c-36.7,0-64.61-15.33-87.81-48.26-21.88-31.04-34.58-71.74-42.98-98.67-10.31-33.04-5.14-64.94,14.96-92.26,25.28-34.38,69.67-55.73,115.84-55.73s90.55,21.35,115.84,55.73c20.09,27.32,25.26,59.22,14.96,92.26-8.4,26.93-21.1,67.63-42.98,98.66-23.21,32.93-51.11,48.26-87.81,48.26ZM179.1,47.53c-44.81,0-87.85,20.67-112.33,53.96-19.24,26.16-24.19,56.72-14.31,88.39,8.32,26.67,20.9,66.98,42.38,97.46,22.32,31.67,49.1,46.42,84.26,46.42s61.94-14.75,84.26-46.42c21.48-30.48,34.06-70.78,42.38-97.45,9.88-31.67,4.93-62.23-14.31-88.39-24.48-33.28-67.52-53.96-112.33-53.96Z"/>
</svg>